<svg id="svg" version="1.1" xmlns="http://www.w3.org/2000/svg" xmlns:xlink="http://www.w3.org/1999/xlink" width="400" height="118.56" viewBox="0, 0, 400,118.56"><g id="svgg"><path id="path0" d="M11.866 0.421 C 6.163 1.660,1.739 6.114,0.343 12.024 C -0.028 13.592,-0.201 101.170,0.159 104.917 C 0.802 111.613,5.330 116.742,11.785 118.084 C 13.569 118.455,386.118 118.465,388.056 118.094 C 393.616 117.030,398.030 112.828,399.533 107.167 L 399.909 105.750 399.963 60.750 C 400.001 29.261,399.962 15.175,399.836 13.833 C 399.203 7.133,394.506 1.780,388.061 0.415 C 386.388 0.061,13.499 0.067,11.866 0.421 M387.884 2.604 C 392.556 3.656,396.268 7.370,397.444 12.167 C 397.923 14.123,397.921 104.355,397.441 106.400 C 396.363 110.999,392.720 114.679,388.098 115.836 C 386.235 116.303,13.982 116.365,12.034 115.899 C 8.441 115.039,5.355 112.628,3.720 109.400 C 2.099 106.200,2.250 111.380,2.250 59.083 L 2.250 13.083 2.627 11.783 C 3.984 7.102,7.357 3.785,11.917 2.649 C 13.660 2.214,385.957 2.169,387.884 2.604 M129.708 20.419 C 124.571 21.536,121.273 27.166,122.754 32.295 C 125.662 42.370,140.667 40.767,140.667 30.382 L 140.667 28.833 136.083 28.833 L 131.500 28.833 131.500 30.246 L 131.500 31.660 134.792 31.705 L 138.083 31.750 138.025 32.246 C 137.690 35.079,133.768 37.391,130.651 36.592 C 126.754 35.594,124.678 32.174,125.517 28.133 C 126.454 23.613,132.796 21.482,135.930 24.633 L 136.611 25.317 137.472 24.445 C 138.529 23.374,138.529 23.374,137.482 22.432 C 135.416 20.575,132.486 19.816,129.708 20.419 M209.362 20.431 C 202.238 21.991,199.681 31.208,204.936 36.385 C 208.695 40.088,214.930 39.932,218.497 36.045 C 224.782 29.197,218.485 18.434,209.362 20.431 M143.500 29.667 L 143.500 38.833 148.917 38.833 L 154.333 38.833 154.333 37.333 L 154.333 35.833 150.333 35.833 L 146.333 35.833 146.333 33.333 L 146.333 30.833 150.000 30.833 L 153.667 30.833 153.667 29.500 L 153.667 28.167 150.000 28.167 L 146.333 28.167 146.333 25.667 L 146.333 23.167 150.333 23.167 L 154.333 23.167 154.333 21.833 L 154.333 20.500 148.917 20.500 L 143.500 20.500 143.500 29.667 M156.167 21.833 L 156.167 23.167 158.665 23.167 L 161.163 23.167 161.207 30.958 L 161.250 38.750 162.708 38.798 L 164.167 38.846 164.167 31.011 L 164.167 23.176 166.625 23.129 L 169.083 23.083 169.132 21.792 L 169.181 20.500 162.674 20.500 L 156.167 20.500 156.167 21.833 M177.207 29.625 L 177.250 38.750 178.708 38.798 L 180.167 38.846 180.167 29.673 L 180.167 20.500 178.665 20.500 L 177.164 20.500 177.207 29.625 M182.333 21.833 L 182.333 23.167 184.833 23.167 L 187.333 23.167 187.333 31.000 L 187.333 38.833 188.583 38.833 L 189.833 38.833 189.833 31.004 L 189.833 23.175 192.375 23.129 L 194.917 23.083 194.965 21.792 L 195.014 20.500 188.674 20.500 L 182.333 20.500 182.333 21.833 M223.667 29.667 L 223.667 38.833 224.998 38.833 L 226.330 38.833 226.373 31.958 L 226.417 25.083 228.417 28.233 C 229.517 29.966,231.470 33.041,232.758 35.066 L 235.099 38.750 236.466 38.798 L 237.833 38.847 237.833 29.673 L 237.833 20.500 236.417 20.500 L 235.000 20.500 235.000 27.033 C 235.000 31.054,234.941 33.506,234.845 33.408 C 234.760 33.321,233.216 30.850,231.413 27.917 C 229.610 24.983,227.833 22.115,227.465 21.542 L 226.794 20.500 225.230 20.500 L 223.667 20.500 223.667 29.667 M214.000 23.381 C 217.714 25.168,219.142 29.054,217.401 32.637 C 214.304 39.011,205.111 36.852,205.109 29.750 C 205.108 24.710,209.790 21.356,214.000 23.381 M138.917 50.840 C 125.903 52.858,118.177 66.640,123.600 78.163 C 130.857 93.583,153.649 93.488,158.911 78.015 C 159.780 75.463,160.302 70.021,159.797 68.792 C 159.685 68.519,159.084 68.500,150.505 68.500 L 141.333 68.500 141.333 71.081 L 141.333 73.663 147.708 73.706 L 154.082 73.750 154.026 74.408 C 152.998 86.331,134.407 88.084,128.918 76.775 C 122.277 63.095,137.996 49.851,150.047 58.972 L 151.130 59.792 153.023 57.886 L 154.917 55.979 154.250 55.400 C 150.153 51.841,144.091 50.038,138.917 50.840 M244.833 70.333 L 244.833 88.833 247.583 88.833 L 250.333 88.833 250.333 70.333 L 250.333 51.833 247.583 51.833 L 244.833 51.833 244.833 70.333 M288.333 70.320 L 288.333 88.833 291.083 88.833 L 293.833 88.833 293.833 81.938 L 293.833 75.042 298.625 74.957 C 304.064 74.860,304.999 74.706,307.417 73.509 C 315.838 69.340,315.838 57.441,307.417 53.277 C 304.794 51.980,304.531 51.948,295.958 51.873 L 288.333 51.807 288.333 70.320 M316.833 70.333 L 316.833 88.833 319.583 88.833 L 322.333 88.833 322.333 70.333 L 322.333 51.833 319.583 51.833 L 316.833 51.833 316.833 70.333 M304.374 57.308 C 309.545 59.372,309.594 66.730,304.454 69.104 L 303.417 69.583 298.667 69.583 L 293.917 69.583 293.873 63.417 C 293.849 60.026,293.867 57.152,293.914 57.031 C 294.081 56.595,303.193 56.836,304.374 57.308 M226.530 64.658 C 217.805 66.800,214.084 77.537,219.559 84.772 C 223.293 89.707,230.743 90.895,234.844 87.208 C 235.870 86.287,235.834 86.257,235.831 88.042 C 235.828 89.847,235.501 91.398,234.882 92.534 C 232.476 96.956,225.403 96.636,223.083 92.000 C 222.922 91.679,222.773 91.396,222.752 91.370 C 222.696 91.304,218.445 93.165,218.273 93.331 C 218.068 93.530,218.900 94.981,219.947 96.250 C 225.317 102.760,236.142 101.981,239.642 94.833 C 241.123 91.808,241.066 92.455,241.128 77.958 L 241.182 65.167 238.508 65.167 L 235.833 65.167 235.833 66.159 L 235.833 67.152 234.582 66.254 C 232.069 64.451,229.469 63.936,226.530 64.658 M333.777 64.497 C 330.602 65.074,328.405 66.390,326.978 68.568 C 326.107 69.898,326.040 69.806,328.635 70.880 C 331.388 72.020,331.122 72.002,331.878 71.097 C 334.707 67.713,342.153 69.665,342.165 73.795 L 342.167 74.340 341.487 73.993 C 340.242 73.358,338.383 72.978,336.500 72.974 C 329.597 72.960,325.007 77.336,326.151 82.840 C 327.468 89.180,336.669 91.664,341.254 86.918 C 342.555 85.572,342.478 85.549,342.535 87.292 L 342.583 88.750 345.218 88.796 L 347.852 88.842 347.798 81.129 L 347.744 73.417 347.293 72.083 C 345.446 66.624,339.728 63.414,333.777 64.497 M171.500 64.919 C 164.347 66.381,159.971 73.649,161.976 80.741 C 165.736 94.044,185.280 92.542,186.814 78.832 C 187.813 69.905,180.337 63.114,171.500 64.919 M198.942 64.939 C 185.438 67.835,186.053 87.661,199.715 89.841 C 209.109 91.340,216.372 83.147,213.999 73.727 C 212.392 67.347,205.760 63.476,198.942 64.939 M262.333 65.001 C 249.915 68.080,250.584 87.128,263.202 89.735 C 267.511 90.625,271.837 89.257,274.820 86.063 C 276.314 84.464,276.350 84.611,274.048 82.944 L 272.096 81.530 270.923 82.739 C 267.788 85.971,262.886 85.837,260.393 82.451 C 259.569 81.331,259.510 81.072,260.040 80.904 C 260.363 80.801,267.802 77.696,274.292 74.955 C 275.415 74.481,276.332 74.016,276.331 73.921 C 276.325 73.537,275.008 70.821,274.287 69.706 C 271.649 65.628,267.071 63.826,262.333 65.001 M347.716 65.458 C 347.765 65.619,348.366 67.025,349.052 68.583 C 349.737 70.142,351.324 73.779,352.578 76.667 C 353.833 79.554,355.423 83.213,356.113 84.797 L 357.367 87.677 355.655 91.463 C 354.714 93.546,353.469 96.290,352.889 97.560 C 352.308 98.831,351.833 99.937,351.833 100.018 C 351.833 100.262,357.096 100.205,357.290 99.958 C 357.484 99.711,360.821 92.073,365.498 81.167 C 366.305 79.287,368.141 75.050,369.579 71.750 C 371.017 68.450,372.234 65.619,372.283 65.458 C 372.366 65.188,372.157 65.167,369.469 65.167 L 366.566 65.167 364.625 70.125 C 363.558 72.852,362.161 76.433,361.521 78.083 C 360.852 79.810,360.267 81.083,360.144 81.083 C 360.020 81.083,359.119 79.086,358.001 76.333 C 356.939 73.721,355.482 70.140,354.763 68.375 L 353.454 65.167 350.541 65.167 C 347.844 65.167,347.634 65.188,347.716 65.458 M177.047 69.887 C 181.825 72.031,182.837 79.111,178.896 82.838 C 174.657 86.848,167.918 84.125,167.166 78.098 C 166.426 72.168,171.932 67.593,177.047 69.887 M204.887 70.052 C 211.185 73.165,209.704 83.556,202.804 84.658 C 198.484 85.348,194.671 81.758,194.671 77.000 C 194.671 71.337,200.065 67.669,204.887 70.052 M231.226 69.583 C 237.160 71.383,237.927 81.011,232.373 83.964 C 227.075 86.780,221.044 81.567,222.351 75.300 C 223.227 71.100,227.389 68.418,231.226 69.583 M267.621 69.826 C 268.479 70.198,269.834 71.452,269.833 71.871 C 269.832 71.988,269.476 72.228,269.041 72.404 C 268.606 72.581,266.225 73.582,263.750 74.629 C 257.985 77.067,258.595 76.941,258.711 75.669 C 259.108 71.289,263.844 68.183,267.621 69.826 M339.534 77.937 C 340.056 78.066,340.822 78.317,341.236 78.494 L 341.987 78.816 341.729 79.700 C 340.769 82.990,337.588 85.146,334.438 84.643 C 331.719 84.208,330.322 82.240,331.229 80.120 C 332.115 78.050,335.933 77.046,339.534 77.937 " stroke="none" fill="#dedbcf" fill-rule="evenodd"></path><path id="path1" d="M32.666 21.554 C 30.825 22.171,30.149 22.957,29.844 24.838 C 29.595 26.376,29.599 91.737,29.848 93.088 C 30.033 94.085,30.672 95.547,31.016 95.760 C 31.240 95.898,80.222 46.986,80.038 46.810 C 79.971 46.746,78.042 45.631,75.750 44.331 C 73.458 43.031,70.571 41.385,69.333 40.674 C 68.096 39.962,66.633 39.133,66.083 38.831 C 65.533 38.530,63.883 37.593,62.417 36.750 C 60.950 35.907,57.987 34.218,55.833 32.996 C 53.679 31.775,50.867 30.176,49.583 29.443 C 48.300 28.710,46.050 27.441,44.583 26.623 C 43.117 25.805,41.317 24.779,40.583 24.342 C 36.067 21.654,34.265 21.019,32.666 21.554 " stroke="none" fill="#04d8d5" fill-rule="evenodd"></path><path id="path2" d="M393.417 2.285 C 393.508 2.379,394.108 2.890,394.750 3.421 C 395.477 4.022,395.706 4.162,395.358 3.792 C 395.050 3.465,394.450 2.954,394.024 2.656 C 393.598 2.358,393.325 2.191,393.417 2.285 M12.687 2.688 C 8.230 3.429,4.368 6.867,2.974 11.333 L 2.583 12.583 2.583 59.250 L 2.583 105.917 2.975 107.167 C 4.366 111.610,7.875 114.806,12.383 115.738 C 14.335 116.141,385.666 116.140,387.632 115.737 C 392.162 114.808,395.932 111.272,397.125 106.833 C 397.588 105.114,397.576 13.316,397.113 11.667 C 395.939 7.481,392.663 4.174,388.417 2.889 C 387.304 2.552,14.700 2.353,12.687 2.688 M4.906 3.542 L 4.417 4.083 4.958 3.594 C 5.463 3.138,5.577 3.000,5.448 3.000 C 5.419 3.000,5.175 3.244,4.906 3.542 M3.406 5.042 L 2.917 5.583 3.458 5.094 C 3.963 4.638,4.077 4.500,3.948 4.500 C 3.919 4.500,3.675 4.744,3.406 5.042 M396.696 5.341 C 397.092 5.849,397.551 6.449,397.716 6.674 C 398.003 7.068,398.003 7.062,397.716 6.532 C 397.551 6.228,397.092 5.628,396.696 5.198 L 395.976 4.417 396.696 5.341 M398.250 7.667 C 398.392 7.942,398.546 8.167,398.592 8.167 C 398.638 8.167,398.559 7.942,398.417 7.667 C 398.274 7.392,398.121 7.167,398.075 7.167 C 398.029 7.167,398.108 7.392,398.250 7.667 M134.178 20.431 C 135.881 20.928,138.500 22.721,138.500 23.390 C 138.500 23.491,138.077 24.001,137.561 24.523 L 136.622 25.471 135.806 24.656 C 134.780 23.629,133.662 23.248,131.750 23.272 C 124.981 23.358,123.049 32.816,129.167 35.917 C 132.605 37.659,137.053 35.843,137.842 32.375 L 137.965 31.833 134.732 31.833 L 131.500 31.833 131.500 30.250 L 131.500 28.667 136.167 28.667 L 140.833 28.667 140.830 30.042 C 140.811 39.481,129.044 42.783,123.777 34.827 C 119.072 27.719,126.052 18.058,134.178 20.431 M214.226 20.429 C 221.186 22.213,223.447 31.346,218.202 36.490 C 212.171 42.404,202.000 38.121,202.000 29.667 C 202.000 23.244,207.878 18.802,214.226 20.429 M154.465 21.792 L 154.513 23.167 150.507 23.167 L 146.500 23.167 146.500 25.667 L 146.500 28.167 150.173 28.167 L 153.847 28.167 153.798 29.542 L 153.750 30.917 150.125 30.962 L 146.500 31.007 146.500 33.420 L 146.500 35.833 150.506 35.833 L 154.513 35.833 154.465 37.375 L 154.417 38.917 148.917 38.917 L 143.417 38.917 143.374 29.623 L 143.331 20.329 148.874 20.373 L 154.417 20.417 154.465 21.792 M169.298 21.792 L 169.347 23.167 166.757 23.167 L 164.167 23.167 164.167 31.083 L 164.167 39.000 162.847 39.000 C 162.121 39.000,161.409 38.954,161.264 38.899 C 161.028 38.809,161.000 37.955,161.000 30.982 L 161.000 23.167 158.583 23.167 L 156.167 23.167 156.167 21.748 L 156.167 20.329 162.708 20.373 L 169.250 20.417 169.298 21.792 M180.167 29.667 L 180.167 39.000 178.847 39.000 C 178.121 39.000,177.409 38.954,177.264 38.899 C 176.989 38.793,176.839 20.716,177.111 20.444 C 177.172 20.383,177.885 20.333,178.694 20.333 L 180.167 20.333 180.167 29.667 M195.083 21.750 L 195.083 23.083 192.543 23.129 L 190.003 23.175 189.960 31.046 L 189.917 38.917 188.583 38.917 L 187.250 38.917 187.207 31.042 L 187.163 23.167 184.665 23.167 L 182.167 23.167 182.167 21.748 L 182.167 20.329 188.625 20.373 L 195.083 20.417 195.083 21.750 M228.916 23.667 C 230.030 25.454,231.798 28.303,232.845 29.998 L 234.750 33.078 234.833 26.748 L 234.917 20.417 236.460 20.369 L 238.003 20.321 237.960 29.619 L 237.917 38.917 236.500 38.917 L 235.083 38.917 234.083 37.383 C 233.533 36.540,232.183 34.419,231.083 32.671 C 229.983 30.924,228.503 28.583,227.794 27.471 L 226.504 25.449 226.460 32.183 L 226.417 38.917 225.042 38.965 L 223.667 39.013 223.667 29.667 L 223.667 20.321 225.279 20.369 L 226.891 20.417 228.916 23.667 M35.578 21.498 C 36.108 21.681,37.563 22.421,38.812 23.144 C 40.061 23.867,44.496 26.390,48.667 28.751 C 52.837 31.112,57.525 33.774,59.083 34.668 C 60.642 35.562,63.604 37.249,65.667 38.418 C 72.594 42.343,76.737 44.706,78.636 45.815 C 83.149 48.451,84.893 49.454,90.083 52.402 C 96.032 55.781,96.749 56.313,97.519 57.917 C 98.921 60.833,97.636 62.626,92.013 65.599 C 90.494 66.402,88.688 67.374,88.000 67.759 C 85.597 69.102,80.126 72.000,79.993 72.000 C 79.919 72.000,79.234 72.366,78.471 72.812 C 77.708 73.259,75.283 74.659,73.083 75.923 C 70.883 77.187,67.621 79.064,65.833 80.093 C 64.046 81.122,60.858 82.956,58.750 84.168 C 56.642 85.380,53.642 87.105,52.083 88.002 C 50.525 88.898,47.525 90.623,45.417 91.834 C 43.308 93.046,40.555 94.634,39.298 95.363 C 35.529 97.547,33.603 97.982,31.833 97.048 C 31.203 96.715,30.917 96.463,30.916 96.240 C 30.916 96.062,30.713 95.617,30.465 95.250 C 29.445 93.741,29.500 95.814,29.500 58.973 C 29.500 24.100,29.496 24.332,30.186 22.968 C 30.946 21.466,33.477 20.775,35.578 21.498 M209.750 23.147 C 205.226 24.338,203.638 31.012,207.090 34.327 C 211.084 38.162,216.857 36.197,217.845 30.667 C 218.670 26.047,214.268 21.958,209.750 23.147 M145.309 50.932 C 148.164 51.448,150.843 52.644,153.309 54.502 C 155.331 56.025,155.344 55.733,153.157 57.927 C 150.944 60.145,151.267 60.029,149.974 59.078 C 140.448 52.065,127.472 58.487,127.503 70.199 C 127.530 80.013,136.334 86.442,145.917 83.646 C 150.151 82.410,153.833 78.062,153.833 74.298 L 153.833 73.833 147.496 73.833 L 141.158 73.833 141.204 71.125 L 141.250 68.417 150.521 68.374 L 159.791 68.331 159.896 68.853 C 160.093 69.838,159.999 73.750,159.743 75.250 C 156.729 92.885,131.994 95.175,123.740 78.583 C 116.644 64.317,129.337 48.044,145.309 50.932 M250.500 70.417 L 250.500 89.000 247.583 89.000 L 244.667 89.000 244.667 70.417 L 244.667 51.833 247.583 51.833 L 250.500 51.833 250.500 70.417 M304.447 52.095 C 316.482 54.581,317.110 71.000,305.305 74.523 C 304.195 74.854,303.621 74.894,299.042 74.958 L 294.000 75.029 294.000 82.019 L 294.000 89.008 291.125 88.962 L 288.250 88.917 288.208 70.375 L 288.165 51.833 295.673 51.833 C 301.844 51.833,303.406 51.880,304.447 52.095 M322.500 70.417 L 322.500 89.000 319.583 89.000 L 316.667 89.000 316.667 70.417 L 316.667 51.833 319.583 51.833 L 322.500 51.833 322.500 70.417 M294.000 63.248 L 294.000 69.519 298.713 69.468 L 303.425 69.417 304.522 68.876 C 309.456 66.446,309.465 59.840,304.536 57.530 L 303.583 57.083 298.792 57.030 L 294.000 56.977 294.000 63.248 M230.867 64.349 C 232.068 64.598,233.943 65.512,234.933 66.331 L 235.750 67.007 235.800 65.999 L 235.849 64.992 238.550 65.038 L 241.250 65.083 241.299 76.583 C 241.358 90.682,241.275 91.657,239.724 94.946 C 236.600 101.575,226.362 102.869,220.807 97.336 C 219.766 96.300,218.000 93.818,218.000 93.391 C 218.000 93.079,222.724 91.128,222.880 91.377 C 222.951 91.490,223.251 91.992,223.547 92.492 C 226.666 97.773,234.672 96.016,235.658 89.833 C 236.039 87.445,235.870 86.315,235.237 87.014 C 230.108 92.682,219.155 88.471,217.151 80.060 C 215.103 71.469,222.780 62.676,230.867 64.349 M339.417 64.573 C 342.632 65.438,345.460 67.680,346.769 70.400 C 347.858 72.665,347.917 73.230,347.917 81.500 L 347.917 88.917 345.167 88.917 L 342.417 88.917 342.369 87.486 L 342.321 86.055 341.225 87.113 C 335.520 92.626,325.450 88.354,325.867 80.598 C 326.187 74.630,334.681 70.855,341.270 73.754 L 342.123 74.129 341.969 73.439 C 341.044 69.305,333.730 67.932,331.694 71.510 C 331.340 72.132,331.506 72.157,328.763 71.066 C 325.896 69.925,325.991 70.009,326.495 69.059 C 328.519 65.244,334.367 63.213,339.417 64.573 M178.083 65.000 C 190.694 68.959,189.797 87.183,176.857 89.926 C 166.638 92.092,158.171 81.436,162.510 71.869 C 165.090 66.179,172.053 63.108,178.083 65.000 M205.417 64.916 C 217.537 68.258,217.672 86.062,205.603 89.629 C 193.686 93.152,184.214 79.738,191.432 69.560 C 194.288 65.531,200.349 63.519,205.417 64.916 M267.823 64.769 C 271.235 65.609,274.171 68.398,275.836 72.384 C 276.469 73.898,276.541 74.333,276.159 74.333 C 276.074 74.333,274.223 75.094,272.044 76.024 C 269.866 76.953,266.958 78.178,265.583 78.744 C 264.208 79.311,262.316 80.102,261.379 80.503 L 259.675 81.231 259.978 81.709 C 262.509 85.707,267.985 86.007,271.188 82.324 L 272.027 81.360 274.055 82.796 C 275.171 83.585,276.118 84.257,276.159 84.289 C 276.578 84.606,273.837 87.424,272.147 88.415 C 262.215 94.236,250.735 85.045,253.659 73.612 C 255.283 67.264,261.694 63.261,267.823 64.769 M354.482 67.333 C 354.977 68.571,356.259 71.721,357.331 74.333 C 358.404 76.946,359.452 79.515,359.660 80.042 C 360.135 81.243,360.204 81.237,360.663 79.958 C 360.868 79.385,361.775 77.042,362.678 74.750 C 363.581 72.458,364.792 69.346,365.370 67.833 L 366.420 65.083 369.460 65.038 C 371.132 65.013,372.500 65.056,372.500 65.133 C 372.500 65.257,370.743 69.396,368.452 74.667 C 368.034 75.629,367.040 77.917,366.243 79.750 C 365.446 81.583,364.252 84.358,363.589 85.917 C 362.926 87.475,361.745 90.212,360.965 92.000 C 360.185 93.787,359.073 96.356,358.495 97.708 L 357.444 100.167 354.555 100.167 C 352.967 100.167,351.667 100.144,351.667 100.116 C 351.667 99.984,353.611 95.588,354.960 92.667 C 355.786 90.879,356.629 89.026,356.832 88.548 L 357.203 87.678 356.664 86.381 C 356.367 85.667,355.384 83.413,354.479 81.372 C 353.574 79.331,352.833 77.621,352.833 77.574 C 352.833 77.526,352.018 75.634,351.021 73.369 C 348.845 68.421,347.500 65.267,347.500 65.109 C 347.500 65.045,348.869 65.013,350.542 65.038 L 353.583 65.083 354.482 67.333 M172.167 69.812 C 165.801 71.858,165.566 81.970,171.833 84.152 C 177.306 86.058,182.162 81.293,180.999 75.160 C 180.215 71.027,176.114 68.544,172.167 69.812 M199.748 69.789 C 191.635 72.699,194.299 85.860,202.726 84.503 C 211.133 83.149,210.605 69.915,202.130 69.555 C 200.935 69.504,200.393 69.557,199.748 69.789 M227.208 69.822 C 220.198 72.210,221.022 83.356,228.292 84.486 C 232.555 85.149,236.048 81.771,236.023 77.009 C 235.997 71.798,231.697 68.292,227.208 69.822 M263.833 69.646 C 261.115 70.540,259.220 72.820,258.895 75.588 L 258.787 76.502 259.852 76.101 C 260.438 75.881,262.754 74.917,265.000 73.959 C 267.246 73.002,269.215 72.172,269.375 72.114 C 269.797 71.964,269.739 71.748,269.082 71.020 C 268.039 69.866,265.325 69.156,263.833 69.646 M334.205 78.092 C 329.366 79.395,330.328 84.519,335.412 84.519 C 338.225 84.519,340.623 82.695,341.496 79.891 L 341.800 78.917 341.424 78.716 C 339.888 77.894,336.142 77.570,334.205 78.092 " stroke="none" fill="#040404" fill-rule="evenodd"></path><path id="path3" d="M55.526 71.686 C 42.028 85.171,31.012 96.285,31.044 96.383 C 31.198 96.845,32.424 97.250,33.667 97.249 C 35.841 97.249,35.842 97.248,44.500 92.258 C 49.105 89.604,55.669 85.832,67.417 79.090 C 70.900 77.091,74.560 74.976,75.550 74.391 C 76.540 73.805,78.152 72.905,79.133 72.390 C 80.114 71.875,82.192 70.763,83.750 69.919 C 85.308 69.074,88.158 67.534,90.083 66.495 C 97.046 62.740,97.597 62.270,97.798 59.906 C 97.969 57.891,96.766 56.524,92.904 54.348 C 91.536 53.576,89.479 52.404,88.333 51.743 C 83.382 48.887,80.325 47.167,80.201 47.167 C 80.127 47.167,69.023 58.200,55.526 71.686 " stroke="none" fill="#f1324a" fill-rule="evenodd"></path><path id="path4" d="M106.458 0.125 C 157.906 0.148,242.094 0.148,293.542 0.125 C 344.990 0.102,302.896 0.083,200.000 0.083 C 97.104 0.083,55.010 0.102,106.458 0.125 M11.254 0.326 C 11.200 0.414,11.046 0.443,10.911 0.392 C 10.777 0.340,10.667 0.381,10.667 0.482 C 10.667 0.703,10.657 0.704,11.917 0.420 L 12.917 0.195 12.135 0.181 C 11.705 0.173,11.309 0.238,11.254 0.326 M388.083 0.420 C 389.343 0.704,389.333 0.703,389.333 0.482 C 389.333 0.381,389.223 0.340,389.089 0.392 C 388.954 0.443,388.800 0.414,388.746 0.326 C 388.691 0.238,388.295 0.173,387.865 0.181 L 387.083 0.195 388.083 0.420 M9.576 0.801 C 6.229 2.203,3.109 5.125,1.282 8.569 C 1.043 9.019,0.886 9.451,0.933 9.527 C 0.981 9.604,0.948 9.667,0.861 9.667 C 0.774 9.667,0.657 9.847,0.602 10.068 C 0.547 10.289,0.456 10.589,0.400 10.735 C 0.344 10.881,0.381 11.000,0.482 11.000 C 0.584 11.000,0.667 10.920,0.667 10.822 C 0.667 10.342,1.831 7.944,2.679 6.676 C 4.399 4.104,7.250 1.860,9.875 1.010 C 10.219 0.899,10.500 0.738,10.500 0.654 C 10.500 0.448,10.369 0.469,9.576 0.801 M389.500 0.643 C 389.500 0.733,389.781 0.899,390.125 1.010 C 393.856 2.218,397.411 5.759,398.921 9.773 C 399.209 10.539,399.494 11.117,399.554 11.057 C 399.615 10.997,399.580 10.847,399.478 10.724 C 399.376 10.601,399.335 10.500,399.386 10.500 C 399.438 10.500,399.376 10.299,399.249 10.054 C 399.121 9.808,399.055 9.546,399.102 9.470 C 399.148 9.395,399.107 9.333,399.010 9.333 C 398.913 9.333,398.848 9.277,398.867 9.208 C 399.013 8.660,396.921 5.617,395.394 4.156 C 393.933 2.760,391.499 1.100,390.717 0.968 C 390.552 0.940,390.379 0.871,390.333 0.814 C 390.172 0.616,389.500 0.477,389.500 0.643 M13.461 2.454 C 13.761 2.491,14.211 2.490,14.461 2.452 C 14.712 2.414,14.467 2.384,13.917 2.385 C 13.367 2.386,13.162 2.417,13.461 2.454 M385.628 2.454 C 385.928 2.491,386.378 2.490,386.628 2.452 C 386.878 2.414,386.633 2.384,386.083 2.385 C 385.533 2.386,385.328 2.417,385.628 2.454 M390.500 3.575 C 390.500 3.621,390.725 3.774,391.000 3.917 C 391.275 4.059,391.500 4.138,391.500 4.092 C 391.500 4.046,391.275 3.892,391.000 3.750 C 390.725 3.608,390.500 3.529,390.500 3.575 M7.580 4.605 C 6.678 5.202,5.409 6.433,4.811 7.292 C 4.099 8.314,4.310 8.162,5.275 6.958 C 5.734 6.385,6.554 5.583,7.097 5.175 C 8.627 4.026,8.844 3.770,7.580 4.605 M392.750 5.013 C 393.866 5.929,394.977 7.163,395.611 8.190 C 396.358 9.399,396.513 9.462,395.885 8.302 C 395.381 7.370,393.182 5.014,392.500 4.673 C 392.249 4.548,392.349 4.684,392.750 5.013 M0.167 11.646 C 0.167 11.909,0.129 12.378,0.083 12.688 C 0.014 13.152,0.024 13.177,0.141 12.833 C 0.418 12.014,0.519 11.167,0.341 11.167 C 0.245 11.167,0.167 11.382,0.167 11.646 M399.667 12.427 C 399.667 12.668,399.739 12.808,399.833 12.750 C 399.925 12.693,400.000 12.501,400.000 12.323 C 400.000 12.146,399.925 12.000,399.833 12.000 C 399.742 12.000,399.667 12.192,399.667 12.427 M2.375 13.250 C 2.377 13.617,2.411 13.747,2.451 13.540 C 2.491 13.332,2.490 13.032,2.448 12.873 C 2.406 12.714,2.374 12.883,2.375 13.250 M397.542 13.417 C 397.544 13.783,397.578 13.914,397.618 13.706 C 397.658 13.499,397.656 13.199,397.615 13.040 C 397.573 12.880,397.540 13.050,397.542 13.417 M399.883 13.833 C 399.883 14.338,399.915 14.544,399.953 14.292 C 399.991 14.040,399.991 13.627,399.953 13.375 C 399.915 13.123,399.883 13.329,399.883 13.833 M2.249 59.083 C 2.249 83.925,2.268 94.063,2.292 81.612 C 2.315 69.160,2.315 48.835,2.292 36.445 C 2.268 24.054,2.249 34.242,2.249 59.083 M397.749 59.333 C 397.749 84.037,397.768 94.144,397.792 81.792 C 397.815 69.440,397.815 49.227,397.792 36.875 C 397.768 24.523,397.749 34.629,397.749 59.333 M143.411 29.667 C 143.411 34.754,143.432 36.835,143.458 34.292 C 143.484 31.748,143.484 27.585,143.458 25.042 C 143.432 22.498,143.411 24.579,143.411 29.667 M154.390 21.750 C 154.391 22.483,154.420 22.763,154.456 22.371 C 154.491 21.979,154.490 21.379,154.454 21.037 C 154.419 20.696,154.390 21.017,154.390 21.750 M182.225 21.833 C 182.225 22.613,182.254 22.931,182.289 22.542 C 182.324 22.152,182.324 21.515,182.289 21.125 C 182.254 20.735,182.225 21.054,182.225 21.833 M234.796 26.933 C 234.770 30.471,234.806 33.400,234.875 33.443 C 234.944 33.485,235.000 30.590,235.000 27.010 C 235.000 23.429,234.964 20.500,234.921 20.500 C 234.877 20.500,234.821 23.395,234.796 26.933 M237.911 29.667 C 237.911 34.754,237.932 36.835,237.958 34.292 C 237.984 31.748,237.984 27.585,237.958 25.042 C 237.932 22.498,237.911 24.579,237.911 29.667 M137.667 22.583 C 137.978 22.904,138.270 23.167,138.315 23.167 C 138.361 23.167,138.144 22.904,137.833 22.583 C 137.522 22.262,137.230 22.000,137.185 22.000 C 137.139 22.000,137.356 22.262,137.667 22.583 M218.083 22.833 C 218.535 23.292,218.942 23.667,218.987 23.667 C 219.033 23.667,218.701 23.292,218.250 22.833 C 217.799 22.375,217.392 22.000,217.346 22.000 C 217.300 22.000,217.632 22.375,218.083 22.833 M146.400 25.667 C 146.400 27.087,146.426 27.669,146.457 26.958 C 146.488 26.248,146.488 25.085,146.457 24.375 C 146.426 23.665,146.400 24.246,146.400 25.667 M187.244 31.000 C 187.244 35.354,187.265 37.135,187.292 34.958 C 187.318 32.781,187.318 29.219,187.292 27.042 C 187.265 24.865,187.244 26.646,187.244 31.000 M189.910 31.000 C 189.910 35.354,189.932 37.135,189.958 34.958 C 189.985 32.781,189.985 29.219,189.958 27.042 C 189.932 24.865,189.910 26.646,189.910 31.000 M207.158 24.625 L 206.583 25.250 207.208 24.676 C 207.790 24.141,207.910 24.000,207.783 24.000 C 207.755 24.000,207.474 24.281,207.158 24.625 M226.333 32.000 C 226.333 35.789,226.369 38.853,226.413 38.809 C 226.525 38.698,226.535 25.313,226.424 25.202 C 226.374 25.152,226.333 28.211,226.333 32.000 M122.379 28.833 C 122.379 29.246,122.411 29.415,122.451 29.208 C 122.491 29.002,122.491 28.665,122.451 28.458 C 122.411 28.252,122.379 28.421,122.379 28.833 M153.725 29.500 C 153.725 30.279,153.754 30.598,153.789 30.208 C 153.824 29.819,153.824 29.181,153.789 28.792 C 153.754 28.402,153.725 28.721,153.725 29.500 M202.056 29.667 C 202.056 30.354,202.085 30.635,202.121 30.292 C 202.157 29.948,202.157 29.385,202.121 29.042 C 202.085 28.698,202.056 28.979,202.056 29.667 M136.076 28.790 L 140.653 28.839 140.713 30.128 L 140.774 31.417 140.762 30.083 L 140.750 28.750 136.125 28.746 L 131.500 28.742 136.076 28.790 M205.052 29.750 C 205.053 30.300,205.084 30.505,205.121 30.205 C 205.158 29.906,205.157 29.456,205.119 29.205 C 205.081 28.955,205.051 29.200,205.052 29.750 M218.048 29.583 C 218.049 30.042,218.081 30.209,218.120 29.956 C 218.158 29.703,218.157 29.328,218.117 29.123 C 218.078 28.918,218.046 29.125,218.048 29.583 M122.379 30.500 C 122.379 30.912,122.411 31.081,122.451 30.875 C 122.491 30.669,122.491 30.331,122.451 30.125 C 122.411 29.919,122.379 30.087,122.379 30.500 M146.400 33.333 C 146.400 34.754,146.426 35.335,146.457 34.625 C 146.488 33.915,146.488 32.752,146.457 32.042 C 146.426 31.331,146.400 31.912,146.400 33.333 M218.158 36.458 L 217.583 37.083 218.208 36.509 C 218.790 35.974,218.910 35.833,218.783 35.833 C 218.755 35.833,218.474 36.115,218.158 36.458 M154.392 37.417 C 154.392 38.242,154.420 38.600,154.455 38.213 C 154.490 37.827,154.490 37.152,154.456 36.713 C 154.422 36.275,154.393 36.592,154.392 37.417 M211.128 36.454 C 211.428 36.491,211.878 36.490,212.128 36.452 C 212.378 36.414,212.133 36.384,211.583 36.385 C 211.033 36.386,210.828 36.417,211.128 36.454 M131.625 36.784 C 131.831 36.824,132.169 36.824,132.375 36.784 C 132.581 36.745,132.412 36.712,132.000 36.712 C 131.587 36.712,131.419 36.745,131.625 36.784 M130.875 39.115 C 131.035 39.157,131.298 39.157,131.458 39.115 C 131.619 39.073,131.487 39.039,131.167 39.039 C 130.846 39.039,130.715 39.073,130.875 39.115 M210.542 39.115 C 210.702 39.157,210.965 39.157,211.125 39.115 C 211.285 39.073,211.154 39.039,210.833 39.039 C 210.512 39.039,210.381 39.073,210.542 39.115 M74.159 52.965 L 68.083 59.083 74.160 53.083 C 77.502 49.783,80.271 47.065,80.313 47.042 C 80.355 47.019,80.354 46.965,80.312 46.923 C 80.270 46.881,77.501 49.600,74.159 52.965 M82.000 48.053 C 82.000 48.127,83.923 49.273,84.958 49.815 C 85.759 50.235,85.282 49.836,84.375 49.328 C 83.848 49.033,83.098 48.606,82.708 48.380 C 82.319 48.153,82.000 48.006,82.000 48.053 M85.500 50.075 C 85.500 50.121,85.725 50.274,86.000 50.417 C 86.275 50.559,86.500 50.638,86.500 50.592 C 86.500 50.546,86.275 50.392,86.000 50.250 C 85.725 50.108,85.500 50.029,85.500 50.075 M244.749 70.333 L 244.750 88.917 247.459 88.923 L 250.167 88.929 247.501 88.877 L 244.835 88.825 244.791 70.288 L 244.748 51.750 244.749 70.333 M316.749 70.333 L 316.750 88.917 319.459 88.923 L 322.167 88.929 319.501 88.877 L 316.835 88.825 316.791 70.288 L 316.748 51.750 316.749 70.333 M89.083 52.123 C 89.175 52.219,89.700 52.542,90.250 52.842 C 90.800 53.142,91.175 53.312,91.083 53.219 C 90.992 53.126,90.467 52.803,89.917 52.500 C 89.367 52.197,88.992 52.028,89.083 52.123 M250.414 70.417 C 250.414 80.592,250.434 84.730,250.458 79.612 C 250.483 74.495,250.483 66.170,250.458 61.112 C 250.434 56.055,250.414 60.242,250.414 70.417 M322.414 70.417 C 322.414 80.592,322.434 84.730,322.458 79.612 C 322.483 74.495,322.483 66.170,322.458 61.112 C 322.434 56.055,322.414 60.242,322.414 70.417 M91.333 53.408 C 91.333 53.454,91.558 53.608,91.833 53.750 C 92.108 53.892,92.333 53.971,92.333 53.925 C 92.333 53.879,92.108 53.726,91.833 53.583 C 91.558 53.441,91.333 53.362,91.333 53.408 M92.500 54.075 C 92.500 54.121,92.725 54.274,93.000 54.417 C 93.275 54.559,93.500 54.638,93.500 54.592 C 93.500 54.546,93.275 54.392,93.000 54.250 C 92.725 54.108,92.500 54.029,92.500 54.075 M95.167 55.617 C 95.396 55.781,95.958 56.251,96.417 56.660 L 97.250 57.404 96.543 56.656 C 96.154 56.244,95.592 55.774,95.293 55.613 C 94.768 55.329,94.764 55.329,95.167 55.617 M127.412 56.708 L 126.250 57.917 127.458 56.754 C 128.123 56.115,128.667 55.572,128.667 55.546 C 128.667 55.424,128.492 55.586,127.412 56.708 M153.337 57.582 L 151.758 59.250 153.413 57.631 C 154.324 56.741,155.034 55.991,154.993 55.964 C 154.951 55.937,154.206 56.665,153.337 57.582 M293.909 57.042 C 293.865 57.157,293.849 60.026,293.873 63.417 L 293.917 69.583 298.458 69.587 L 303.000 69.592 298.500 69.543 L 294.000 69.495 294.000 63.250 L 294.000 57.005 298.458 56.958 L 302.917 56.911 298.453 56.872 C 295.000 56.842,293.971 56.881,293.909 57.042 M65.833 61.250 C 65.150 61.938,64.629 62.500,64.675 62.500 C 64.721 62.500,65.317 61.938,66.000 61.250 C 66.683 60.563,67.204 60.000,67.158 60.000 C 67.112 60.000,66.516 60.563,65.833 61.250 M313.726 63.417 C 313.725 64.242,313.754 64.600,313.788 64.213 C 313.823 63.827,313.824 63.152,313.789 62.713 C 313.755 62.275,313.726 62.592,313.726 63.417 M308.372 63.000 C 308.372 63.321,308.406 63.452,308.448 63.292 C 308.490 63.131,308.490 62.869,308.448 62.708 C 308.406 62.548,308.372 62.679,308.372 63.000 M61.912 65.208 L 60.750 66.417 61.958 65.254 C 63.081 64.175,63.243 64.000,63.121 64.000 C 63.095 64.000,62.551 64.544,61.912 65.208 M173.795 64.621 C 174.094 64.658,174.544 64.657,174.795 64.619 C 175.045 64.581,174.800 64.551,174.250 64.552 C 173.700 64.553,173.495 64.584,173.795 64.621 M201.295 64.621 C 201.594 64.658,202.044 64.657,202.295 64.619 C 202.545 64.581,202.300 64.551,201.750 64.552 C 201.200 64.553,200.995 64.584,201.295 64.621 M264.708 64.619 C 264.960 64.658,265.373 64.658,265.625 64.619 C 265.877 64.581,265.671 64.550,265.167 64.550 C 264.662 64.550,264.456 64.581,264.708 64.619 M221.240 67.375 L 220.750 67.917 221.292 67.427 C 221.797 66.971,221.910 66.833,221.781 66.833 C 221.752 66.833,221.509 67.077,221.240 67.375 M183.326 68.208 C 184.017 68.944,184.167 69.077,184.167 68.951 C 184.167 68.925,183.810 68.568,183.375 68.160 L 182.583 67.417 183.326 68.208 M164.991 68.292 L 164.417 68.917 165.042 68.342 C 165.623 67.808,165.743 67.667,165.616 67.667 C 165.588 67.667,165.307 67.948,164.991 68.292 M57.912 69.208 L 56.750 70.417 57.958 69.254 C 59.081 68.175,59.243 68.000,59.121 68.000 C 59.095 68.000,58.551 68.544,57.912 69.208 M144.500 68.454 C 152.857 68.570,159.795 68.572,159.724 68.458 C 159.682 68.390,155.508 68.350,150.448 68.371 C 145.389 68.392,142.712 68.429,144.500 68.454 M121.724 70.083 C 121.724 70.817,121.754 71.096,121.789 70.704 C 121.824 70.312,121.824 69.712,121.788 69.371 C 121.752 69.029,121.723 69.350,121.724 70.083 M127.389 70.167 C 127.389 70.854,127.419 71.135,127.455 70.792 C 127.491 70.448,127.491 69.885,127.455 69.542 C 127.419 69.198,127.389 69.479,127.389 70.167 M332.073 70.875 L 331.583 71.417 332.125 70.927 C 332.630 70.471,332.743 70.333,332.615 70.333 C 332.586 70.333,332.342 70.577,332.073 70.875 M206.500 71.250 C 206.811 71.571,207.103 71.833,207.149 71.833 C 207.195 71.833,206.978 71.571,206.667 71.250 C 206.356 70.929,206.064 70.667,206.018 70.667 C 205.972 70.667,206.189 70.929,206.500 71.250 M233.833 71.250 C 234.144 71.571,234.436 71.833,234.482 71.833 C 234.528 71.833,234.311 71.571,234.000 71.250 C 233.689 70.929,233.397 70.667,233.351 70.667 C 233.305 70.667,233.522 70.929,233.833 71.250 M196.824 71.458 L 196.250 72.083 196.875 71.509 C 197.219 71.193,197.500 70.912,197.500 70.884 C 197.500 70.757,197.359 70.877,196.824 71.458 M190.194 71.590 C 189.914 72.203,189.968 72.334,190.270 71.777 C 190.411 71.517,190.495 71.273,190.457 71.235 C 190.419 71.196,190.300 71.357,190.194 71.590 M53.833 73.250 C 53.150 73.938,52.629 74.500,52.675 74.500 C 52.721 74.500,53.317 73.938,54.000 73.250 C 54.683 72.563,55.204 72.000,55.158 72.000 C 55.112 72.000,54.516 72.563,53.833 73.250 M335.127 72.951 C 335.334 72.991,335.634 72.990,335.794 72.948 C 335.953 72.906,335.783 72.874,335.417 72.875 C 335.050 72.877,334.920 72.911,335.127 72.951 M337.125 72.951 C 337.331 72.991,337.669 72.991,337.875 72.951 C 338.081 72.911,337.912 72.879,337.500 72.879 C 337.087 72.879,336.919 72.911,337.125 72.951 M143.500 73.786 C 149.202 73.903,154.128 73.905,154.058 73.792 C 154.015 73.723,151.116 73.683,147.615 73.703 C 144.114 73.723,142.262 73.761,143.500 73.786 M302.042 74.948 C 302.202 74.990,302.465 74.990,302.625 74.948 C 302.785 74.906,302.654 74.872,302.333 74.872 C 302.012 74.872,301.881 74.906,302.042 74.948 M293.873 81.871 L 293.833 88.825 291.042 88.875 L 288.250 88.925 291.047 88.963 C 293.160 88.991,293.863 88.949,293.924 88.792 C 293.968 88.677,293.983 85.508,293.958 81.750 L 293.913 74.917 293.873 81.871 M214.372 75.667 C 214.372 75.987,214.406 76.119,214.448 75.958 C 214.490 75.798,214.490 75.535,214.448 75.375 C 214.406 75.215,214.372 75.346,214.372 75.667 M49.996 77.125 L 48.583 78.583 50.042 77.170 C 51.396 75.858,51.576 75.667,51.455 75.667 C 51.430 75.667,50.773 76.323,49.996 77.125 M216.890 76.917 C 216.891 77.650,216.920 77.929,216.956 77.537 C 216.991 77.145,216.990 76.545,216.954 76.204 C 216.919 75.863,216.890 76.183,216.890 76.917 M186.879 76.500 C 186.879 76.912,186.911 77.081,186.951 76.875 C 186.991 76.669,186.991 76.331,186.951 76.125 C 186.911 75.919,186.879 76.087,186.879 76.500 M222.223 77.000 C 222.223 77.688,222.252 77.969,222.288 77.625 C 222.324 77.281,222.324 76.719,222.288 76.375 C 222.252 76.031,222.223 76.313,222.223 77.000 M167.039 76.833 C 167.039 77.154,167.073 77.285,167.115 77.125 C 167.157 76.965,167.157 76.702,167.115 76.542 C 167.073 76.381,167.039 76.512,167.039 76.833 M189.042 78.083 C 189.044 78.450,189.078 78.580,189.118 78.373 C 189.158 78.166,189.156 77.866,189.115 77.706 C 189.073 77.547,189.040 77.717,189.042 78.083 M186.875 78.417 C 186.877 78.783,186.911 78.914,186.951 78.706 C 186.991 78.499,186.990 78.199,186.948 78.040 C 186.906 77.880,186.874 78.050,186.875 78.417 M45.996 81.125 L 44.583 82.583 46.042 81.170 C 47.396 79.858,47.576 79.667,47.455 79.667 C 47.430 79.667,46.773 80.323,45.996 81.125 M157.949 80.252 C 157.797 80.572,157.706 80.833,157.748 80.833 C 157.862 80.833,158.368 79.813,158.292 79.737 C 158.256 79.700,158.102 79.932,157.949 80.252 M150.909 80.708 L 150.250 81.417 150.958 80.758 C 151.348 80.395,151.667 80.077,151.667 80.050 C 151.667 79.923,151.522 80.050,150.909 80.708 M325.885 81.083 C 325.886 81.633,325.917 81.838,325.954 81.539 C 325.991 81.239,325.990 80.789,325.952 80.539 C 325.914 80.288,325.884 80.533,325.885 81.083 M224.333 82.583 C 224.644 82.904,224.936 83.167,224.982 83.167 C 225.028 83.167,224.811 82.904,224.500 82.583 C 224.189 82.262,223.897 82.000,223.851 82.000 C 223.805 82.000,224.022 82.262,224.333 82.583 M233.833 82.750 C 233.428 83.162,233.135 83.500,233.181 83.500 C 233.226 83.500,233.595 83.162,234.000 82.750 C 234.405 82.337,234.699 82.000,234.653 82.000 C 234.607 82.000,234.238 82.337,233.833 82.750 M270.575 83.042 L 269.917 83.750 270.625 83.091 C 271.015 82.729,271.333 82.410,271.333 82.383 C 271.333 82.257,271.188 82.383,270.575 83.042 M42.079 85.042 L 40.750 86.417 42.125 85.087 C 42.881 84.356,43.500 83.737,43.500 83.712 C 43.500 83.591,43.314 83.765,42.079 85.042 M140.625 84.455 C 141.015 84.490,141.652 84.490,142.042 84.455 C 142.431 84.420,142.112 84.392,141.333 84.392 C 140.554 84.392,140.235 84.420,140.625 84.455 M229.042 84.782 C 229.202 84.823,229.465 84.823,229.625 84.782 C 229.785 84.740,229.654 84.705,229.333 84.705 C 229.012 84.705,228.881 84.740,229.042 84.782 M165.083 86.333 C 165.535 86.792,165.942 87.167,165.987 87.167 C 166.033 87.167,165.701 86.792,165.250 86.333 C 164.799 85.875,164.392 85.500,164.346 85.500 C 164.300 85.500,164.632 85.875,165.083 86.333 M274.409 86.542 L 273.750 87.250 274.458 86.591 C 275.117 85.978,275.243 85.833,275.117 85.833 C 275.090 85.833,274.771 86.152,274.409 86.542 M257.000 86.583 C 257.311 86.904,257.603 87.167,257.649 87.167 C 257.695 87.167,257.478 86.904,257.167 86.583 C 256.856 86.263,256.564 86.000,256.518 86.000 C 256.472 86.000,256.689 86.263,257.000 86.583 M328.167 86.750 C 328.478 87.071,328.770 87.333,328.815 87.333 C 328.861 87.333,328.644 87.071,328.333 86.750 C 328.022 86.429,327.730 86.167,327.685 86.167 C 327.639 86.167,327.856 86.429,328.167 86.750 M182.740 86.875 L 182.250 87.417 182.792 86.927 C 183.297 86.471,183.410 86.333,183.281 86.333 C 183.252 86.333,183.009 86.577,182.740 86.875 M38.163 88.958 L 36.750 90.417 38.208 89.004 C 39.563 87.691,39.743 87.500,39.621 87.500 C 39.596 87.500,38.940 88.156,38.163 88.958 M342.646 88.879 C 342.717 88.951,343.932 88.988,345.346 88.962 L 347.917 88.916 345.216 88.833 C 343.731 88.787,342.574 88.808,342.646 88.879 M228.213 89.456 C 228.652 89.490,229.327 89.490,229.713 89.455 C 230.100 89.420,229.742 89.392,228.917 89.392 C 228.092 89.393,227.775 89.422,228.213 89.456 M334.380 89.456 C 334.818 89.490,335.493 89.490,335.880 89.455 C 336.267 89.420,335.908 89.392,335.083 89.392 C 334.258 89.393,333.942 89.422,334.380 89.456 M140.958 89.789 C 141.348 89.824,141.985 89.824,142.375 89.789 C 142.765 89.754,142.446 89.725,141.667 89.725 C 140.887 89.725,140.569 89.754,140.958 89.789 M34.080 93.042 L 32.583 94.583 34.125 93.087 C 34.973 92.264,35.667 91.570,35.667 91.545 C 35.667 91.424,35.470 91.610,34.080 93.042 M223.833 93.219 C 223.833 93.248,224.077 93.491,224.375 93.760 L 224.917 94.250 224.427 93.708 C 223.971 93.203,223.833 93.090,223.833 93.219 M237.742 97.542 L 237.083 98.250 237.792 97.591 C 238.450 96.978,238.577 96.833,238.450 96.833 C 238.423 96.833,238.105 97.152,237.742 97.542 M228.795 100.787 C 229.094 100.825,229.544 100.824,229.795 100.786 C 230.045 100.748,229.800 100.717,229.250 100.718 C 228.700 100.719,228.495 100.750,228.795 100.787 M0.100 105.620 C 0.349 110.852,4.218 115.706,9.876 117.887 L 11.250 118.417 199.167 118.417 L 387.083 118.418 199.500 118.333 C 26.257 118.254,11.853 118.227,11.083 117.975 C 4.622 115.856,0.848 111.457,0.165 105.250 C 0.020 103.928,0.019 103.931,0.100 105.620 M399.832 104.875 C 399.824 110.773,393.971 117.307,387.985 118.101 C 387.535 118.161,387.167 118.285,387.167 118.377 C 387.167 118.811,389.997 118.019,391.917 117.048 C 396.469 114.746,399.719 110.128,399.958 105.625 C 400.006 104.731,399.997 104.000,399.939 104.000 C 399.881 104.000,399.833 104.394,399.832 104.875 M2.375 105.083 C 2.377 105.450,2.411 105.580,2.451 105.373 C 2.491 105.166,2.490 104.866,2.448 104.706 C 2.406 104.547,2.374 104.717,2.375 105.083 M397.539 105.167 C 397.539 105.487,397.573 105.619,397.615 105.458 C 397.657 105.298,397.657 105.035,397.615 104.875 C 397.573 104.715,397.539 104.846,397.539 105.167 M395.580 110.375 C 394.512 112.006,393.755 112.748,391.494 114.380 C 391.242 114.562,391.370 114.530,391.826 114.296 C 392.746 113.826,395.283 111.316,395.797 110.368 C 396.286 109.464,396.174 109.468,395.580 110.375 M4.514 110.833 C 4.823 111.478,7.333 113.870,8.169 114.316 C 9.100 114.812,8.904 114.616,7.464 113.607 C 6.848 113.176,6.044 112.470,5.679 112.037 C 5.313 111.604,4.856 111.063,4.664 110.833 L 4.315 110.417 4.514 110.833 M13.211 116.120 C 13.464 116.158,13.839 116.157,14.044 116.117 C 14.249 116.078,14.042 116.046,13.583 116.048 C 13.125 116.049,12.957 116.081,13.211 116.120 M385.958 116.118 C 386.165 116.157,386.502 116.157,386.708 116.118 C 386.915 116.078,386.746 116.045,386.333 116.045 C 385.921 116.045,385.752 116.078,385.958 116.118 " stroke="none" fill="#616161" fill-rule="evenodd"></path><path id="path5" d="M30.546 22.542 C 30.262 22.909,30.132 23.262,30.404 22.927 C 30.549 22.749,30.760 22.544,30.875 22.471 C 31.011 22.384,31.018 22.338,30.895 22.336 C 30.792 22.334,30.635 22.427,30.546 22.542 " stroke="none" fill="#047ba2" fill-rule="evenodd"></path><path id="path6" d="M6.167 2.619 C 5.134 3.414,4.245 4.232,3.579 5.000 C 3.221 5.412,3.563 5.149,4.339 4.414 C 5.115 3.679,6.013 2.876,6.333 2.630 C 6.654 2.384,6.879 2.180,6.833 2.176 C 6.787 2.173,6.487 2.372,6.167 2.619 M107.375 2.458 C 158.319 2.481,241.681 2.481,292.625 2.458 C 343.569 2.435,301.887 2.416,200.000 2.416 C 98.112 2.416,56.431 2.435,107.375 2.458 M395.578 4.301 C 396.125 4.869,396.600 5.333,396.632 5.333 C 396.763 5.333,395.884 4.383,395.253 3.842 C 394.845 3.493,394.972 3.672,395.578 4.301 M5.991 6.125 L 5.417 6.750 6.042 6.176 C 6.385 5.860,6.667 5.578,6.667 5.551 C 6.667 5.423,6.526 5.543,5.991 6.125 M393.500 5.719 C 393.500 5.748,393.744 5.991,394.042 6.260 L 394.583 6.750 394.094 6.208 C 393.638 5.703,393.500 5.590,393.500 5.719 M2.539 6.292 C 2.107 6.915,1.967 7.167,2.051 7.167 C 2.090 7.167,2.321 6.867,2.564 6.500 C 3.057 5.755,3.035 5.575,2.539 6.292 M398.583 8.500 C 398.726 8.775,398.879 9.000,398.925 9.000 C 398.971 9.000,398.892 8.775,398.750 8.500 C 398.608 8.225,398.454 8.000,398.408 8.000 C 398.362 8.000,398.441 8.225,398.583 8.500 M2.415 59.167 C 2.415 84.146,2.435 94.365,2.458 81.875 C 2.482 69.385,2.482 48.948,2.458 36.458 C 2.435 23.969,2.415 34.188,2.415 59.167 M397.582 59.333 C 397.582 84.313,397.601 94.531,397.625 82.042 C 397.649 69.552,397.649 49.115,397.625 36.625 C 397.601 24.135,397.582 34.354,397.582 59.333 M146.042 20.458 C 147.577 20.486,150.090 20.486,151.625 20.458 C 153.160 20.431,151.904 20.408,148.833 20.408 C 145.762 20.408,144.506 20.431,146.042 20.458 M162.660 20.457 L 169.153 20.504 169.212 21.794 L 169.270 23.083 169.260 21.750 L 169.250 20.417 162.708 20.414 L 156.167 20.411 162.660 20.457 M177.076 20.542 C 177.033 20.656,177.017 24.837,177.041 29.833 L 177.086 38.917 177.126 29.715 L 177.167 20.513 178.708 20.458 L 180.250 20.403 178.703 20.368 C 177.593 20.343,177.134 20.392,177.076 20.542 M188.535 20.457 L 194.986 20.504 195.047 21.794 L 195.107 23.083 195.095 21.750 L 195.083 20.417 188.583 20.414 L 182.083 20.411 188.535 20.457 M224.464 20.456 C 224.948 20.490,225.698 20.490,226.131 20.456 C 226.563 20.421,226.167 20.394,225.250 20.394 C 224.333 20.395,223.980 20.423,224.464 20.456 M235.708 20.456 C 236.144 20.490,236.856 20.490,237.292 20.456 C 237.727 20.422,237.371 20.393,236.500 20.393 C 235.629 20.393,235.273 20.422,235.708 20.456 M204.991 22.625 L 204.417 23.250 205.042 22.676 C 205.623 22.141,205.743 22.000,205.616 22.000 C 205.588 22.000,205.307 22.281,204.991 22.625 M211.125 22.951 C 211.331 22.991,211.669 22.991,211.875 22.951 C 212.081 22.911,211.912 22.879,211.500 22.879 C 211.088 22.879,210.919 22.911,211.125 22.951 M161.077 31.000 C 161.077 35.354,161.099 37.135,161.125 34.958 C 161.151 32.781,161.151 29.219,161.125 27.042 C 161.099 24.865,161.077 26.646,161.077 31.000 M137.906 24.042 L 137.417 24.583 137.958 24.094 C 138.256 23.825,138.500 23.581,138.500 23.552 C 138.500 23.423,138.362 23.537,137.906 24.042 M127.333 25.083 C 126.928 25.496,126.635 25.833,126.681 25.833 C 126.726 25.833,127.095 25.496,127.500 25.083 C 127.905 24.671,128.199 24.333,128.153 24.333 C 128.107 24.333,127.738 24.671,127.333 25.083 M148.199 30.958 C 149.179 30.987,150.829 30.987,151.866 30.958 C 152.902 30.929,152.100 30.904,150.083 30.904 C 148.067 30.904,147.219 30.928,148.199 30.958 M133.042 31.791 C 133.935 31.821,135.398 31.821,136.292 31.791 C 137.185 31.761,136.454 31.736,134.667 31.736 C 132.879 31.736,132.148 31.761,133.042 31.791 M206.750 34.167 C 207.108 34.533,207.438 34.833,207.484 34.833 C 207.530 34.833,207.275 34.533,206.917 34.167 C 206.559 33.800,206.228 33.500,206.182 33.500 C 206.137 33.500,206.392 33.800,206.750 34.167 M126.500 33.885 C 126.500 33.914,126.744 34.158,127.042 34.427 L 127.583 34.917 127.094 34.375 C 126.638 33.870,126.500 33.757,126.500 33.885 M136.406 34.875 L 135.917 35.417 136.458 34.927 C 136.756 34.658,137.000 34.414,137.000 34.385 C 137.000 34.257,136.862 34.370,136.406 34.875 M125.167 36.583 C 125.478 36.904,125.770 37.167,125.815 37.167 C 125.861 37.167,125.644 36.904,125.333 36.583 C 125.022 36.262,124.730 36.000,124.685 36.000 C 124.639 36.000,124.856 36.262,125.167 36.583 M146.219 38.958 C 147.760 38.986,150.235 38.986,151.719 38.958 C 153.203 38.930,151.942 38.908,148.917 38.908 C 145.892 38.908,144.678 38.931,146.219 38.958 M162.047 38.956 C 162.485 38.990,163.160 38.990,163.547 38.955 C 163.934 38.920,163.575 38.892,162.750 38.892 C 161.925 38.893,161.609 38.922,162.047 38.956 M178.047 38.956 C 178.485 38.990,179.160 38.990,179.547 38.955 C 179.934 38.920,179.575 38.892,178.750 38.892 C 177.925 38.893,177.609 38.922,178.047 38.956 M187.963 38.956 C 188.355 38.991,188.955 38.990,189.296 38.954 C 189.637 38.919,189.317 38.890,188.583 38.890 C 187.850 38.891,187.571 38.920,187.963 38.956 M224.292 38.955 C 224.681 38.990,225.319 38.990,225.708 38.955 C 226.098 38.920,225.779 38.892,225.000 38.892 C 224.221 38.892,223.902 38.920,224.292 38.955 M235.792 38.955 C 236.181 38.990,236.819 38.990,237.208 38.955 C 237.598 38.920,237.279 38.892,236.500 38.892 C 235.721 38.892,235.402 38.920,235.792 38.955 M80.336 46.968 C 80.338 47.032,81.069 47.485,81.961 47.976 C 82.853 48.467,84.783 49.563,86.250 50.410 C 87.717 51.258,90.417 52.803,92.250 53.844 C 94.083 54.884,95.958 56.073,96.417 56.484 L 97.250 57.232 96.417 56.378 C 95.763 55.708,94.430 54.869,90.250 52.495 C 87.317 50.829,83.885 48.878,82.625 48.160 C 81.365 47.441,80.335 46.905,80.336 46.968 M141.208 50.619 C 141.460 50.658,141.873 50.658,142.125 50.619 C 142.377 50.581,142.171 50.550,141.667 50.550 C 141.162 50.550,140.956 50.581,141.208 50.619 M288.247 70.333 C 288.247 80.554,288.267 84.735,288.292 79.625 C 288.316 74.515,288.316 66.152,288.292 61.042 C 288.267 55.931,288.247 60.112,288.247 70.333 M310.493 55.375 C 311.184 56.111,311.333 56.243,311.333 56.118 C 311.333 56.091,310.977 55.735,310.542 55.326 L 309.750 54.583 310.493 55.375 M140.961 56.121 C 141.261 56.158,141.711 56.157,141.961 56.119 C 142.212 56.081,141.967 56.051,141.417 56.052 C 140.867 56.053,140.662 56.084,140.961 56.121 M131.573 60.042 L 131.083 60.583 131.625 60.094 C 131.923 59.825,132.167 59.581,132.167 59.552 C 132.167 59.423,132.029 59.537,131.573 60.042 M228.292 64.289 C 228.681 64.324,229.319 64.324,229.708 64.289 C 230.098 64.254,229.779 64.225,229.000 64.225 C 228.221 64.225,227.902 64.254,228.292 64.289 M335.125 64.290 C 335.606 64.323,336.394 64.323,336.875 64.290 C 337.356 64.256,336.962 64.228,336.000 64.228 C 335.037 64.228,334.644 64.256,335.125 64.290 M172.542 64.615 C 172.702 64.657,172.965 64.657,173.125 64.615 C 173.285 64.573,173.154 64.539,172.833 64.539 C 172.512 64.539,172.381 64.573,172.542 64.615 M202.875 64.615 C 203.035 64.657,203.298 64.657,203.458 64.615 C 203.619 64.573,203.487 64.539,203.167 64.539 C 202.846 64.539,202.715 64.573,202.875 64.615 M266.208 64.615 C 266.369 64.657,266.631 64.657,266.792 64.615 C 266.952 64.573,266.821 64.539,266.500 64.539 C 266.179 64.539,266.048 64.573,266.208 64.615 M238.457 65.123 L 241.164 65.175 241.209 77.046 L 241.253 88.917 241.252 77.000 L 241.250 65.083 238.500 65.077 L 235.750 65.070 238.457 65.123 M348.500 65.114 C 351.166 65.234,353.629 65.239,353.558 65.125 C 353.515 65.056,352.116 65.015,350.448 65.033 C 348.781 65.051,347.904 65.087,348.500 65.114 M366.442 65.125 C 366.399 65.194,367.276 65.230,368.390 65.206 C 372.190 65.125,372.587 65.065,369.552 65.033 C 367.884 65.015,366.485 65.056,366.442 65.125 M91.458 65.762 C 90.835 66.100,90.873 66.241,91.500 65.917 C 91.775 65.774,92.000 65.623,92.000 65.579 C 92.000 65.472,91.982 65.478,91.458 65.762 M220.573 67.875 L 220.083 68.417 220.625 67.927 C 221.130 67.471,221.243 67.333,221.115 67.333 C 221.086 67.333,220.842 67.577,220.573 67.875 M192.500 68.250 C 192.095 68.662,191.801 69.000,191.847 69.000 C 191.893 69.000,192.262 68.662,192.667 68.250 C 193.072 67.837,193.365 67.500,193.319 67.500 C 193.274 67.500,192.905 67.837,192.500 68.250 M211.000 68.250 C 211.311 68.571,211.603 68.833,211.649 68.833 C 211.695 68.833,211.478 68.571,211.167 68.250 C 210.856 67.929,210.564 67.667,210.518 67.667 C 210.472 67.667,210.689 67.929,211.000 68.250 M141.235 71.167 C 141.235 72.679,141.260 73.298,141.291 72.542 C 141.322 71.785,141.322 70.548,141.291 69.792 C 141.260 69.035,141.235 69.654,141.235 71.167 M85.292 69.095 C 84.669 69.433,84.707 69.574,85.333 69.250 C 85.608 69.108,85.833 68.956,85.833 68.912 C 85.833 68.805,85.815 68.811,85.292 69.095 M173.960 69.451 C 174.168 69.491,174.468 69.490,174.627 69.448 C 174.786 69.406,174.617 69.374,174.250 69.375 C 173.883 69.377,173.753 69.411,173.960 69.451 M201.460 69.451 C 201.668 69.491,201.968 69.490,202.127 69.448 C 202.286 69.406,202.117 69.374,201.750 69.375 C 201.383 69.377,201.253 69.411,201.460 69.451 M228.958 69.451 C 229.165 69.491,229.502 69.491,229.708 69.451 C 229.915 69.411,229.746 69.379,229.333 69.379 C 228.921 69.379,228.752 69.411,228.958 69.451 M335.792 69.451 C 335.998 69.491,336.335 69.491,336.542 69.451 C 336.748 69.411,336.579 69.379,336.167 69.379 C 335.754 69.379,335.585 69.411,335.792 69.451 M310.491 71.458 L 309.917 72.083 310.542 71.509 C 310.885 71.193,311.167 70.912,311.167 70.884 C 311.167 70.757,311.026 70.877,310.491 71.458 M336.208 72.782 C 336.369 72.823,336.631 72.823,336.792 72.782 C 336.952 72.740,336.821 72.705,336.500 72.705 C 336.179 72.705,336.048 72.740,336.208 72.782 M77.458 73.262 C 76.835 73.600,76.873 73.741,77.500 73.417 C 77.775 73.274,78.000 73.123,78.000 73.079 C 78.000 72.972,77.982 72.978,77.458 73.262 M347.910 81.750 C 347.910 85.692,347.932 87.280,347.958 85.280 C 347.985 83.280,347.985 80.055,347.958 78.114 C 347.931 76.172,347.910 77.808,347.910 81.750 M327.824 76.125 L 327.250 76.750 327.875 76.176 C 328.219 75.860,328.500 75.578,328.500 75.551 C 328.500 75.423,328.359 75.543,327.824 76.125 M208.705 76.167 C 208.705 76.487,208.740 76.619,208.782 76.458 C 208.823 76.298,208.823 76.035,208.782 75.875 C 208.740 75.715,208.705 75.846,208.705 76.167 M161.392 77.250 C 161.392 78.075,161.420 78.434,161.455 78.047 C 161.490 77.660,161.490 76.985,161.456 76.547 C 161.422 76.109,161.393 76.425,161.392 77.250 M253.225 77.167 C 253.225 77.946,253.254 78.265,253.289 77.875 C 253.324 77.485,253.324 76.848,253.289 76.458 C 253.254 76.069,253.225 76.387,253.225 77.167 M194.718 76.917 C 194.719 77.467,194.750 77.672,194.787 77.372 C 194.825 77.072,194.824 76.622,194.786 76.372 C 194.748 76.122,194.717 76.367,194.718 76.917 M214.558 77.333 C 214.558 78.112,214.587 78.431,214.622 78.042 C 214.657 77.652,214.657 77.015,214.622 76.625 C 214.587 76.235,214.558 76.554,214.558 77.333 M181.212 77.167 C 181.212 77.579,181.245 77.748,181.284 77.542 C 181.324 77.335,181.324 76.998,181.284 76.792 C 181.245 76.585,181.212 76.754,181.212 77.167 M336.296 77.789 C 336.688 77.824,337.288 77.824,337.629 77.788 C 337.971 77.752,337.650 77.723,336.917 77.724 C 336.183 77.724,335.904 77.754,336.296 77.789 M131.500 80.417 C 131.811 80.737,132.103 81.000,132.149 81.000 C 132.195 81.000,131.978 80.737,131.667 80.417 C 131.356 80.096,131.064 79.833,131.018 79.833 C 130.972 79.833,131.189 80.096,131.500 80.417 M331.048 81.417 C 331.049 81.875,331.081 82.043,331.120 81.789 C 331.158 81.536,331.157 81.161,331.117 80.956 C 331.078 80.751,331.046 80.958,331.048 81.417 M62.958 81.595 C 62.335 81.933,62.373 82.074,63.000 81.750 C 63.275 81.608,63.500 81.456,63.500 81.412 C 63.500 81.305,63.482 81.311,62.958 81.595 M154.577 84.875 L 153.750 85.750 154.625 84.923 C 155.438 84.154,155.576 84.000,155.452 84.000 C 155.426 84.000,155.032 84.394,154.577 84.875 M139.542 84.282 C 139.702 84.323,139.965 84.323,140.125 84.282 C 140.285 84.240,140.154 84.205,139.833 84.205 C 139.512 84.205,139.381 84.240,139.542 84.282 M142.708 84.282 C 142.869 84.323,143.131 84.323,143.292 84.282 C 143.452 84.240,143.321 84.205,143.000 84.205 C 142.679 84.205,142.548 84.240,142.708 84.282 M265.377 84.953 C 265.631 84.991,266.006 84.990,266.211 84.951 C 266.416 84.911,266.208 84.880,265.750 84.881 C 265.292 84.882,265.124 84.915,265.377 84.953 M220.417 86.000 C 220.775 86.367,221.105 86.667,221.151 86.667 C 221.197 86.667,220.941 86.367,220.583 86.000 C 220.225 85.633,219.895 85.333,219.849 85.333 C 219.803 85.333,220.059 85.633,220.417 86.000 M210.744 86.542 L 209.917 87.417 210.792 86.590 C 211.273 86.135,211.667 85.741,211.667 85.715 C 211.667 85.590,211.512 85.729,210.744 86.542 M342.360 87.365 C 342.345 88.162,342.390 88.849,342.458 88.891 C 342.527 88.934,342.562 88.507,342.537 87.943 C 342.454 86.105,342.387 85.887,342.360 87.365 M341.324 86.958 L 340.750 87.583 341.375 87.009 C 341.957 86.474,342.077 86.333,341.949 86.333 C 341.922 86.333,341.640 86.615,341.324 86.958 M49.625 89.262 C 49.002 89.600,49.040 89.741,49.667 89.417 C 49.942 89.274,50.167 89.123,50.167 89.079 C 50.167 88.972,50.149 88.978,49.625 89.262 M228.708 89.615 C 228.869 89.657,229.131 89.657,229.292 89.615 C 229.452 89.573,229.321 89.539,229.000 89.539 C 228.679 89.539,228.548 89.573,228.708 89.615 M139.542 89.782 C 139.702 89.823,139.965 89.823,140.125 89.782 C 140.285 89.740,140.154 89.705,139.833 89.705 C 139.512 89.705,139.381 89.740,139.542 89.782 M143.294 89.785 C 143.501 89.824,143.801 89.823,143.960 89.781 C 144.120 89.739,143.950 89.707,143.583 89.709 C 143.217 89.711,143.086 89.745,143.294 89.785 M172.792 90.118 C 172.998 90.157,173.335 90.157,173.542 90.118 C 173.748 90.078,173.579 90.045,173.167 90.045 C 172.754 90.045,172.585 90.078,172.792 90.118 M174.958 90.118 C 175.165 90.157,175.502 90.157,175.708 90.118 C 175.915 90.078,175.746 90.045,175.333 90.045 C 174.921 90.045,174.752 90.078,174.958 90.118 M200.292 90.118 C 200.498 90.157,200.835 90.157,201.042 90.118 C 201.248 90.078,201.079 90.045,200.667 90.045 C 200.254 90.045,200.085 90.078,200.292 90.118 M202.458 90.118 C 202.665 90.157,203.002 90.157,203.208 90.118 C 203.415 90.078,203.246 90.045,202.833 90.045 C 202.421 90.045,202.252 90.078,202.458 90.118 M264.292 90.118 C 264.498 90.157,264.835 90.157,265.042 90.118 C 265.248 90.078,265.079 90.045,264.667 90.045 C 264.254 90.045,264.085 90.078,264.292 90.118 M266.460 90.118 C 266.668 90.158,266.968 90.156,267.127 90.115 C 267.286 90.073,267.117 90.040,266.750 90.042 C 266.383 90.044,266.253 90.078,266.460 90.118 M44.125 92.429 C 43.502 92.767,43.540 92.907,44.167 92.583 C 44.442 92.441,44.667 92.289,44.667 92.246 C 44.667 92.138,44.649 92.145,44.125 92.429 M42.958 93.095 C 42.335 93.433,42.373 93.574,43.000 93.250 C 43.275 93.108,43.500 92.956,43.500 92.912 C 43.500 92.805,43.482 92.811,42.958 93.095 M228.625 95.621 C 228.923 95.658,229.410 95.658,229.708 95.621 C 230.006 95.584,229.762 95.553,229.167 95.553 C 228.571 95.553,228.327 95.584,228.625 95.621 M35.250 97.104 C 34.442 97.337,32.786 97.338,32.083 97.105 C 31.900 97.045,31.975 97.105,32.250 97.240 C 33.055 97.634,35.800 97.422,36.295 96.927 C 36.431 96.792,36.191 96.832,35.250 97.104 M5.993 112.375 C 6.402 112.810,6.758 113.167,6.785 113.167 C 6.910 113.167,6.778 113.017,6.042 112.326 L 5.250 111.583 5.993 112.375 M393.824 112.458 L 393.250 113.083 393.875 112.509 C 394.457 111.974,394.577 111.833,394.449 111.833 C 394.422 111.833,394.140 112.115,393.824 112.458 M107.125 116.125 C 158.206 116.148,241.794 116.148,292.875 116.125 C 343.956 116.102,302.163 116.083,200.000 116.083 C 97.837 116.083,56.044 116.102,107.125 116.125 " stroke="none" fill="#323030" fill-rule="evenodd"></path><path id="path7" d="M33.377 21.286 C 33.631 21.325,34.006 21.324,34.211 21.284 C 34.416 21.244,34.208 21.213,33.750 21.214 C 33.292 21.216,33.124 21.248,33.377 21.286 " stroke="none" fill="#115d46" fill-rule="evenodd"></path><path id="path8" d="M29.582 58.917 C 29.582 77.617,29.601 85.242,29.625 75.862 C 29.649 66.481,29.649 51.181,29.625 41.862 C 29.601 32.542,29.582 40.217,29.582 58.917 " stroke="none" fill="#043c44" fill-rule="evenodd"></path></g></svg>